<svg xmlns="http://www.w3.org/2000/svg" width="34" height="38" viewBox="0 0 34 38" fill="none">
                                            <path fill-rule="evenodd" clip-rule="evenodd" d="M34 31.2752C30.4497 35.2736 25.2088 37.8026 19.3628 37.8026C8.66901 37.8026 0 29.3402 0 18.9013C0 8.4624 8.66901 0 19.3628 0C25.2087 0 30.4495 2.52892 33.9998 6.52719L28.4236 11.2411C26.2258 8.76607 22.9816 7.20058 19.3628 7.20058C12.7428 7.20058 7.37627 12.4392 7.37627 18.9014C7.37627 25.3636 12.7428 30.6022 19.3628 30.6022C22.9818 30.6022 26.2262 29.0366 28.4239 26.5613L34 31.2752Z" fill="#10302A"/>
                                            <path d="M19.3625 25.2024C22.927 25.2024 25.8167 22.3816 25.8167 18.902C25.8167 15.4224 22.927 12.6016 19.3625 12.6016C15.7979 12.6016 12.9082 15.4224 12.9082 18.902C12.9082 22.3816 15.7979 25.2024 19.3625 25.2024Z" fill="#EF2B10"/>
                                            </svg>